HIERARCHY
ROOT Hips
{
	OFFSET 0.000000 0.000000 0.000000
	CHANNELS 6 Xposition Yposition Zposition Zrotation Yrotation Xrotation 
	JOINT LHipJoint
	{
		OFFSET 0.000000 0.000000 0.000000
		CHANNELS 3 Zrotation Yrotation Xrotation
		JOINT LeftUpLeg
		{
			OFFSET 1.363060 -1.794630 0.839290
			CHANNELS 3 Zrotation Yrotation Xrotation
			JOINT LeftLeg
			{
				OFFSET 2.448110 -6.726130 0.000000
				CHANNELS 3 Zrotation Yrotation Xrotation
				JOINT LeftFoot
				{
					OFFSET 2.562200 -7.039590 0.000000
					CHANNELS 3 Zrotation Yrotation Xrotation
					JOINT LeftToeBase
					{
						OFFSET 0.157640 -0.433110 2.322550
						CHANNELS 3 Zrotation Yrotation Xrotation
						End Site
						{
							OFFSET 0.000000 0.000000 0.000000
						}
					}
				}
			}
		}
	}
	JOINT RHipJoint
	{
		OFFSET 0.000000 0.000000 0.000000
		CHANNELS 3 Zrotation Yrotation Xrotation
		JOINT RightUpLeg
		{
			OFFSET -1.305520 -1.794630 0.839290
			CHANNELS 3 Zrotation Yrotation Xrotation
			JOINT RightLeg
			{
				OFFSET -2.542530 -6.985550 0.000000
				CHANNELS 3 Zrotation Yrotation Xrotation
				JOINT RightFoot
				{
					OFFSET -2.568260 -7.056230 0.000000
					CHANNELS 3 Zrotation Yrotation Xrotation
					JOINT RightToeBase
					{
						OFFSET -0.164730 -0.452590 2.363150
						CHANNELS 3 Zrotation Yrotation Xrotation
						End Site
						{
							OFFSET 0.000000 0.000000 0.000000
						}
					}
				}
			}
		}
	}
}
MOTION
Frames: 16
Frame Time: 0.008333
2.553090 17.198306 3.348565 -128.187788 -78.701762 171.310152 -9.256156 -2.479616 -2.062397 -10.580420 -1.474296 -51.350809 -2.354351 -1.193237 12.618468 2.257546 9.850874 -7.487823 0.679900 0.000000 -22.027300 6.076088 -0.063905 14.753195 -16.550760 17.090492 -121.491371 5.911867 4.954774 -7.932213 0.262872 -0.837303 3.952842 -2.056600 -0.000000 -69.001800
2.554313 17.204568 3.341173 -130.684962 -78.309048 173.534923 -9.139645 -2.327488 -2.155722 -10.922443 -1.230694 -50.863268 -2.401623 -1.189044 12.319394 2.253202 9.872379 -7.456994 0.679699 0.000000 -21.819500 6.049695 0.160104 14.628450 -17.008360 17.107344 -120.745932 5.734947 4.755416 -7.311422 0.433825 -0.193962 4.173992 -1.826501 -0.000000 -68.946500
2.553871 17.211530 3.333467 -132.843870 -77.983200 175.330714 -9.058808 -2.195203 -2.223763 -11.230612 -0.998858 -50.288299 -2.440138 -1.186655 12.031370 2.245858 9.884660 -7.432822 0.675600 -0.000000 -21.621001 6.000779 0.359859 14.459842 -17.234590 17.197755 -119.605031 5.564466 4.592528 -6.870287 0.584755 0.361249 4.451766 -1.622500 -0.000000 -68.852700
2.552347 17.219155 3.325392 -134.692370 -77.737366 176.722291 -9.006381 -2.080067 -2.268432 -11.503624 -0.789987 -49.622773 -2.469083 -1.186501 11.754684 2.236578 9.894064 -7.413745 0.668500 0.000001 -21.428500 5.941056 0.536923 14.242575 -17.192533 17.368112 -118.070614 5.404964 4.466445 -6.615095 0.701136 0.772441 4.784504 -1.463800 0.000000 -68.800600
2.549467 17.227191 3.317018 -136.239443 -77.576730 177.724450 -8.978695 -1.980000 -2.293007 -11.745521 -0.594287 -48.873799 -2.490776 -1.187755 11.496205 2.223204 9.888599 -7.401802 0.657100 -0.000001 -21.251300 5.879539 0.689117 13.977820 -16.853504 17.618346 -116.155425 5.261458 4.375613 -6.544018 0.772667 0.993566 5.172727 -1.367400 0.000000 -68.851600
2.545809 17.235702 3.308229 -137.526930 -77.503434 178.372957 -8.970678 -1.892141 -2.303092 -11.961042 -0.407926 -48.034752 -2.506014 -1.189605 11.256139 2.205401 9.867421 -7.396474 0.641400 0.000000 -21.093500 5.823302 0.819350 13.660684 -16.195370 17.934074 -113.867485 5.136129 4.313285 -6.638216 0.796175 1.005258 5.615568 -1.341301 0.000000 -69.050300
2.540467 17.244080 3.298660 -138.580316 -77.518843 178.710990 -8.979080 -1.810357 -2.298313 -12.165938 -0.220953 -47.132115 -2.520016 -1.190870 11.044130 2.180010 9.809913 -7.402057 0.619600 0.000000 -20.959500 5.781249 0.925412 13.304878 -15.239248 18.274624 -111.262912 5.026925 4.269521 -6.850691 0.768520 0.792345 6.091861 -1.392900 0.000000 -69.369000
2.534696 17.252815 3.288035 -139.468376 -77.617494 178.790300 -8.999300 -1.733652 -2.289220 -12.359943 -0.033813 -46.130014 -2.530329 -1.191437 10.845098 2.149357 9.733539 -7.411363 0.593900 -0.000001 -20.851100 5.755057 1.016354 12.894094 -13.973771 18.607328 -108.329929 4.932938 4.233936 -7.150422 0.699114 0.389499 6.598219 -1.511900 0.000001 -69.791600
2.527170 17.261042 3.275801 -140.208155 -77.801721 178.658390 -9.029127 -1.655112 -2.269201 -12.559403 0.154769 -45.076498 -2.542667 -1.190688 10.670845 2.110712 9.616872 -7.428729 0.563100 0.000000 -20.767700 5.752980 1.088878 12.454380 -12.474709 18.863032 -105.164800 4.846981 4.195648 -7.471766 0.588832 -0.192731 7.094688 -1.697000 -0.000000 -70.194800
2.518785 17.269160 3.261588 -140.868856 -78.061840 178.375949 -9.065157 -1.574193 -2.247183 -12.765165 0.345476 -43.943638 -2.555298 -1.189001 10.502342 2.066205 9.475642 -7.445646 0.529800 -0.000001 -20.710800 5.774970 1.151869 11.976892 -10.783751 18.997329 -101.785486 4.763540 4.144372 -7.767046 0.448804 -0.900033 7.558584 -1.929100 -0.000000 -70.502700
2.509375 17.277003 3.244944 -141.504925 -78.390583 178.010974 -9.104371 -1.488128 -2.223041 -12.979606 0.529388 -42.736414 -2.567899 -1.186979 10.329563 2.018054 9.321251 -7.457103 0.496100 0.000001 -20.681000 5.823230 1.210748 11.468544 -8.987876 18.960982 -98.250390 4.674797 4.072902 -7.990999 0.287035 -1.687847 7.962037 -2.191000 -0.000000 -70.633700
2.497809 17.284007 3.225604 -142.114953 -78.787420 177.596141 -9.145468 -1.393972 -2.187150 -13.204629 0.694075 -41.502003 -2.582339 -1.185188 10.158240 1.966502 9.148919 -7.463425 0.462900 -0.000001 -20.675100 5.900443 1.262868 10.954173 -7.208580 18.717406 -94.665502 4.572754 3.977023 -8.091490 0.106104 -2.531657 8.267131 -2.471900 0.000000 -70.505999
2.483674 17.290012 3.203620 -142.691674 -79.247878 177.146289 -9.187533 -1.292258 -2.134445 -13.434545 0.829227 -40.268745 -2.598126 -1.184037 9.991183 1.913020 8.962880 -7.464515 0.431101 -0.000000 -20.689701 6.004758 1.306773 10.447708 -5.550407 18.263679 -91.105213 4.451379 3.855304 -8.034261 -0.089746 -3.403744 8.452796 -2.758299 -0.000000 -70.113400
2.468064 17.295616 3.178570 -143.373805 -79.746242 176.795216 -9.224599 -1.182159 -2.072106 -13.664763 0.917220 -38.995260 -2.610140 -1.185066 9.789151 1.864824 8.810247 -7.444458 0.405900 -0.000000 -20.729800 6.132633 1.355700 9.937078 -4.102793 17.629088 -87.580081 4.301409 3.704012 -7.788624 -0.293877 -4.268740 8.512690 -3.031400 0.000001 -69.538100
2.449069 17.300174 3.151249 -144.014726 -80.289347 176.445257 -9.260309 -1.066966 -1.984435 -13.883105 0.951574 -37.768547 -2.620694 -1.187657 9.590521 1.819275 8.664829 -7.416579 0.384600 0.000000 -20.789500 6.279635 1.392266 9.457579 -2.956539 16.860516 -84.191201 4.120811 3.527135 -7.329832 -0.510272 -5.139771 8.435075 -3.293700 0.000000 -68.814700
2.427106 17.304048 3.121969 -144.619046 -80.862453 176.107379 -9.293119 -0.949633 -1.872810 -14.078669 0.924397 -36.590371 -2.627070 -1.191989 9.389254 1.779349 8.544266 -7.378327 0.368401 0.000000 -20.872800 6.438821 1.416535 9.010595 -2.153269 16.030021 -80.953844 3.906423 3.323883 -6.632811 -0.736911 -6.006461 8.224637 -3.536700 0.000000 -68.045301
